<svg id="Groupe_337" data-name="Groupe 337" xmlns="http://www.w3.org/2000/svg" width="1180" height="1150" viewBox="0 0 1180 1150">
  <g id="Ellipse_259" data-name="Ellipse 259" fill="#fff" stroke="#09a13b" stroke-width="2">
    <ellipse cx="590" cy="575" rx="590" ry="575" stroke="none"/>
    <ellipse cx="590" cy="575" rx="589" ry="574" fill="none"/>
  </g>
  <g id="Groupe_336" data-name="Groupe 336" transform="translate(271.882 267.072)">
    <path id="Tracé_2" data-name="Tracé 2" d="M2581.334,475.962c-5.2-1.559-9.743.591-14.353.391-6.25-.27-7.248-1.515-4.355-7.322,7.407-14.867,18.089-25.959,33.481-30.959a10.745,10.745,0,0,0,7.328-7.139c7.1-18.7,13.51-37.643,17.983-57.274,1.9-8.346,1.25-16.972,1.6-25.437,1.538-37.611,6.845-74.4,19.374-109.752a16.9,16.9,0,0,0-1.266-15.17c-14.1-25.487-20.355-53.783-24.587-82.65-4.349-29.646-5.442-59.526-4.714-89.491.136-5.391.753-10.767.979-16.157.309-7.4,1.055-8.4,7.948-7.663,15.107,1.613,30.234,3.124,45.14,6.393,16.056,3.522,32.14,7.343,47.013,14.722,16.742,8.309,33.417,17.161,47.163,30.733,5.112,5.046,9.45,11.024,13.869,16.815,2.327,3.048,4.686,3.535,8.158,2.591,61.98-16.8,123.732-16.017,185.147,3.241,4.285,1.343,6.621.515,9.231-3.343,11.354-16.754,25.911-29.417,42.895-39.541,32.708-19.5,68.14-27.613,104.942-30.8.389-.035.777-.05,1.164-.091,14.679-1.515,14.615-1.513,14.942,14.548.77,37.665.006,75.217-6.8,112.361-5.743,31.317-15.006,61.087-33.512,86.774-1.707,2.372-1.291,4.546-.531,7,11.53,37.263,15.5,75.715,16.514,114.75.447,17.211,6.869,33.124,12.285,49.133a33.011,33.011,0,0,1,1.29,3.476c2.87,13.106,9.141,22.017,22.063,26.57,12.154,4.283,19.007,15.946,24.7,27.833,1.9,3.965.737,5.963-3.405,5.767-4.08-.191-8.152-.624-12.227-.87-2.672-.161-3.777.883-2.165,3.67,2.035,3.524,3.748,7.328,6.191,10.491,2.859,3.7,2.488,6.335-.612,9.55-14.229,14.757-28.732,29.143-43.781,42.985-13.347,12.276-28.267,22.011-42.233,33.22-14.743,11.828-31.252,20.15-47.207,29.665-28.925,17.254-60.175,26.561-92.312,33.907-22.421,5.126-44.659,5.093-67.2,2.785-5.156-.528-10.473.411-15.692.933-19.708,1.97-39.037-.072-58.448-4.272-27.451-5.941-54.283-13.952-79.312-27.235-17.728-9.406-35.528-19-51.966-30.956a696.511,696.511,0,0,1-73.364-61.5c-6.916-6.657-13.011-14.283-19.626-21.311-2.455-2.606-1.782-4.659.188-6.93C2576.844,486.262,2578.445,480.921,2581.334,475.962Z" transform="translate(-2561.077 -27.138)" fill="#09a13b" stroke="#fff" stroke-width="2"/>
  </g>
</svg>
